<?xml version="1.0" encoding="iso-8859-1"?>
<svg version="1.1" id="Layer_1" xmlns="http://www.w3.org/2000/svg" xmlns:xlink="http://www.w3.org/1999/xlink" x="0px"
     y="0px"
     viewBox="0 0 1024 1024" style="enable-background:new 0 0 1024 1024;" xml:space="preserve">
<g>
	<g>
		<path d="M742.4 857.6c-17.067 4.267-76.8 17.067-243.2 17.067-170.667 0-200.533-12.8-217.6-17.067-21.333-4.267-34.133-17.067-34.133-34.133v-541.867c0-145.067 115.2-260.267 256-260.267h8.533c140.8 0 256 115.2 256 260.267v541.867c8.533 17.067-4.267 29.867-25.6 34.133zM494.933 772.267c0 12.8 4.267 25.6 17.067 25.6 8.533 0 17.067-8.533 17.067-25.6v-162.133c0-12.8-4.267-25.6-17.067-25.6-8.533 0-17.067 8.533-17.067 25.6v162.133zM652.8 132.267c-76.8-76.8-200.533-76.8-277.333 0s-76.8 200.533 0 277.333c76.8 76.8 200.533 76.8 277.333 0s76.8-200.533 0-277.333zM422.4 302.933c-17.067 0-34.133-12.8-34.133-34.133 0-17.067 12.8-34.133 34.133-34.133 17.067 0 34.133 12.8 34.133 34.133-4.267 17.067-17.067 34.133-34.133 34.133zM601.6 302.933c-17.067 0-34.133-12.8-34.133-34.133 0-17.067 12.8-34.133 34.133-34.133 17.067 0 34.133 12.8 34.133 34.133 0 17.067-17.067 34.133-34.133 34.133z"/>
	</g>
</g>
</svg>
