<?xml version="1.0" encoding="iso-8859-1"?>
<!-- Generator: Adobe Illustrator 19.0.0, SVG Export Plug-In . SVG Version: 6.00 Build 0)  -->
<svg version="1.1" id="Layer_1" xmlns="http://www.w3.org/2000/svg" xmlns:xlink="http://www.w3.org/1999/xlink" x="0px" y="0px"
	 viewBox="0 0 512 512" style="enable-background:new 0 0 512 512;" xml:space="preserve">
<g>
	<g>
		<path d="M466.756,0H45.244C20.297,0,0,20.297,0,45.244v421.512C0,491.703,20.297,512,45.244,512h421.512
			C491.703,512,512,491.703,512,466.756V45.244C512,20.297,491.703,0,466.756,0z M494.819,466.756
			c0,15.473-12.589,28.063-28.063,28.063H45.244c-15.473,0-28.063-12.589-28.063-28.063V45.244
			c0-15.473,12.589-28.063,28.063-28.063h421.512c15.473,0,28.063,12.589,28.063,28.063V466.756z"/>
	</g>
</g>
<g>
	<g>
		<path d="M256,100.796c-85.58,0-155.204,69.624-155.204,155.204S170.42,411.204,256,411.204S411.204,341.58,411.204,256
			S341.58,100.796,256,100.796z M256,117.978c3.277,0,6.527,0.123,9.747,0.349c-0.002,0.076-0.011,0.149-0.011,0.223v27.49
			c0,5.369-4.367,9.736-9.736,9.736s-9.736-4.367-9.736-9.736v-27.49c0-0.076-0.009-0.149-0.011-0.223
			C249.473,118.101,252.723,117.978,256,117.978z M256,394.022c-3.277,0-6.527-0.123-9.747-0.349
			c0.002-0.076,0.011-0.149,0.011-0.223v-27.49c0-5.369,4.367-9.736,9.736-9.736s9.736,4.367,9.736,9.736v27.49
			c0,0.076,0.009,0.149,0.011,0.223C262.527,393.899,259.277,394.022,256,394.022z M282.917,391.379V365.96
			c0-14.842-12.075-26.917-26.917-26.917s-26.917,12.075-26.917,26.917v25.419C165.819,378.822,117.978,322.896,117.978,256
			s47.842-122.822,111.105-135.379v25.419c0,14.842,12.075,26.917,26.917,26.917s26.917-12.075,26.917-26.917v-25.419
			C346.181,133.178,394.022,189.104,394.022,256S346.181,378.822,282.917,391.379z"/>
	</g>
</g>
<g>
	<g>
		<path d="M182.694,219.919c-19.895,0-36.081,16.186-36.081,36.081s16.186,36.081,36.081,36.081
			c19.895,0,36.081-16.186,36.081-36.081S202.588,219.919,182.694,219.919z M182.694,274.899c-10.421,0-18.899-8.478-18.899-18.899
			s8.478-18.899,18.899-18.899c10.421,0,18.899,8.478,18.899,18.899S193.115,274.899,182.694,274.899z"/>
	</g>
</g>
<g>
	<g>
		<path d="M329.307,219.919c-19.895,0-36.081,16.186-36.081,36.081s16.186,36.081,36.081,36.081
			c19.895,0,36.081-16.186,36.081-36.081S349.201,219.919,329.307,219.919z M329.307,274.899c-10.421,0-18.899-8.478-18.899-18.899
			s8.478-18.899,18.899-18.899c10.421,0,18.899,8.478,18.899,18.899S339.727,274.899,329.307,274.899z"/>
	</g>
</g>
<g>
	<g>
		<path d="M457.593,36.653H54.407c-9.79,0-17.754,7.964-17.754,17.754v403.186c0,9.79,7.964,17.754,17.754,17.754h403.186
			c9.79,0,17.754-7.964,17.754-17.754V54.407C475.347,44.617,467.383,36.653,457.593,36.653z M458.166,457.593
			c0,0.316-0.257,0.573-0.573,0.573H54.407c-0.316,0-0.573-0.257-0.573-0.573V54.407c0-0.316,0.257-0.573,0.573-0.573h403.186
			c0.316,0,0.573,0.257,0.573,0.573V457.593z"/>
	</g>
</g>
<g>
</g>
<g>
</g>
<g>
</g>
<g>
</g>
<g>
</g>
<g>
</g>
<g>
</g>
<g>
</g>
<g>
</g>
<g>
</g>
<g>
</g>
<g>
</g>
<g>
</g>
<g>
</g>
<g>
</g>
</svg>
