<?xml version="1.0" encoding="iso-8859-1"?>
<svg version="1.1" id="Layer_1" xmlns="http://www.w3.org/2000/svg" xmlns:xlink="http://www.w3.org/1999/xlink" x="0px"
     y="0px"
     viewBox="0 0 1024 1024" style="enable-background:new 0 0 1024 1024;" xml:space="preserve">
<g>
	<g>
		<path d="M512.043 874.667c-150.613 0-273.365-122.923-273.365-273.877 0-67.243 24.704-131.883 69.333-182.059 0.171-0.299 0.341-0.469 0.512-0.683 45.312-44.459 74.496-91.392 86.912-139.733 1.493-5.504 6.315-9.344 12.117-9.344h209.237c5.589 0 10.581 3.84 11.989 9.259 17.152 65.579 61.611 115.669 86.656 139.733 0.171 0.256 0.512 0.469 0.683 0.768 44.715 50.176 69.248 114.773 69.248 182.059-0.043 150.955-122.539 273.877-273.323 273.877zM605.269 237.269h-186.453c-10.965 0-19.797-8.875-19.797-19.84 0-10.923 8.875-19.925 19.797-19.925h186.453c11.008 0 19.84 9.003 19.84 19.925-0.043 10.965-8.875 19.84-19.84 19.84zM605.269 166.827h-186.453c-10.965 0-19.797-8.832-19.797-19.925 0-10.923 8.875-19.84 19.797-19.84h186.453c11.008 0 19.84 8.917 19.84 19.84-0.043 11.093-8.875 19.925-19.84 19.925zM605.269 96.427h-186.453c-10.965 0-19.797-9.003-19.797-19.925s8.875-19.84 19.797-19.84h49.067c4.565-20.224 22.571-35.328 44.16-35.328s39.552 15.104 44.117 35.328h49.067c11.008 0 19.84 8.917 19.84 19.84s-8.832 19.925-19.797 19.925z"/>
	</g>
</g>
</svg>
